<svg class="homepageImage" xmlns="http://www.w3.org/2000/svg" width="771" height="463" viewBox="0 0 771 463" fill="none"><path d="M725.14 155.786C731.991 154.07 738.659 157.805 739.74 163.75C745.328 160.606 753.331 162.873 755.668 167.401C763.335 166.341 770.403 171.676 770.403 179.014C770.403 184.443 686.243 184.443 686.243 179.014C684.909 169.676 689.177 164.473 696.603 164.414C696.603 164.414 694.379 145 711.318 145C723.989 145 725.14 155.786 725.14 155.786Z" fill="url(#paint0_linear_240_13967)" fill-opacity="0.8"></path><path d="M39.1395 136.556C45.9905 134.84 52.6586 138.575 53.7396 144.52C59.3276 141.376 67.3305 143.643 69.6675 148.171C77.3345 147.111 84.4025 152.446 84.4025 159.784C84.4025 165.213 0.242544 165.213 0.242544 159.784C-1.09146 150.446 3.17653 145.243 10.6025 145.184C10.6025 145.184 8.37856 125.77 25.3176 125.77C37.9886 125.77 39.1395 136.556 39.1395 136.556Z" fill="url(#paint1_linear_240_13967)" fill-opacity="0.8"></path><path d="M496.863 18.263C506.948 18.3781 511.788 23.2679 511.676 32.6694C511.676 40.3994 409 40.3994 409 32.6694C410.515 21.8989 422.798 17.4511 433.148 19.4806C439.234 12.5808 445.322 11.3632 453.438 13.7983C453.698 14.3486 456.077 0 473.069 0C493.819 0 496.863 18.263 496.863 18.263Z" fill="url(#paint2_linear_240_13967)" fill-opacity="0.5"></path><path d="M723.293 438.899C725.809 437.837 728.575 437.249 731.478 437.249C743.109 437.249 752.538 446.678 752.538 458.308H660.034C660.034 439.196 675.528 423.702 694.641 423.702C706.56 423.702 717.068 429.73 723.293 438.899Z" fill="url(#paint3_linear_240_13967)"></path><path d="M545.597 320.119L556.461 330.983V289.563H545.597V320.119Z" fill="#A24C3B"></path><path d="M556.461 289.563H574.301V330.983H556.461V289.563Z" fill="#DC7455"></path><path d="M574.302 294.763L556.463 296.782L545.598 301.76V292.121H574.302V294.763Z" fill="url(#paint4_linear_240_13967)" fill-opacity="0.05"></path><path d="M578.436 287.004H541.462V292.122H578.436V287.004Z" fill="#EEDDCF"></path><path d="M556.461 287.004H541.462V292.122H556.461V287.004Z" fill="#D3BEAE"></path><path d="M502.055 314.112L452.678 363.441V458.31H547.873V359.858L502.055 314.112Z" fill="#A24C3B"></path><path d="M435.922 374.761L408.74 402.259V458.308H463.493V402.259L435.922 374.761Z" fill="#A24C3B"></path><path d="M463.528 402.259H527.677V458.308H463.528V402.259Z" fill="#DC7455"></path><path d="M471.207 416.535H519.998V458.308H471.207V416.535Z" fill="#EAEAEA"></path><path fill-rule="evenodd" clip-rule="evenodd" d="M471.208 422.397H519.999V424.467H471.208V422.397Z" fill="#CDCDCD"></path><path fill-rule="evenodd" clip-rule="evenodd" d="M471.208 429.249H519.999V431.319H471.208V429.249Z" fill="#CDCDCD"></path><path fill-rule="evenodd" clip-rule="evenodd" d="M471.208 436.101H519.999V438.171H471.208V436.101Z" fill="#CDCDCD"></path><path fill-rule="evenodd" clip-rule="evenodd" d="M471.208 442.954H519.999V445.024H471.208V442.954Z" fill="#CDCDCD"></path><path fill-rule="evenodd" clip-rule="evenodd" d="M471.208 449.805H519.999V451.875H471.208V449.805Z" fill="#CDCDCD"></path><path d="M519.998 458.308H517.861V418.673H471.208L471.207 416.535H519.998" fill="#CDCDCD"></path><path d="M447.488 368.55H454.914L505.709 317.818L501.996 314.11L447.488 368.55Z" fill="#292019"></path><path d="M547.875 359.855H698.08V458.308H547.875V359.855Z" fill="#DC7455"></path><path d="M698.079 372.676L547.873 375.73L504.48 336.213L465.48 368.546H454.914L505.709 317.814L547.874 359.851H698.079V372.676Z" fill="url(#paint5_linear_240_13967)" fill-opacity="0.1"></path><path d="M677.729 428.852L645.082 440.915V428.852H677.729Z" fill="url(#paint6_linear_240_13967)" fill-opacity="0.1"></path><path d="M595.914 428.854L563.266 440.917V428.854H595.914Z" fill="url(#paint7_linear_240_13967)" fill-opacity="0.1"></path><path d="M502.009 308.994L556.659 363.44H706.863L652.539 308.994H502.009Z" fill="#5F4D3F"></path><path d="M447.488 368.542L447.434 363.415L502.009 308.994L556.659 363.425H706.863L703.364 368.543H556.597L501.996 314.11L447.488 368.542Z" fill="#886D5B"></path><path d="M609.062 458.306H636.893V391.121H609.062V458.306Z" fill="#0060A2"></path><path d="M610.199 392.258H635.833V458.306H610.199V392.258Z" fill="#F3D7BD"></path><path d="M613.653 424.176C613.43 425.357 614.445 426.372 615.626 426.148C616.281 426.024 616.818 425.488 616.942 424.833C617.165 423.652 616.15 422.636 614.97 422.86C614.314 422.985 613.778 423.52 613.653 424.176Z" fill="#292019"></path><path d="M635.794 392.22V458.306H633.61V394.494H611.246V458.306L609.062 458.306V392.22H635.794Z" fill="#EABE94"></path><path d="M636.893 391.121V458.306H634.619V393.395H611.336V458.306H609.062V391.121H636.893Z" fill="white"></path><path d="M669.528 424.504L664.867 406.788L649.906 398.52V424.504H669.528Z" fill="url(#paint8_linear_240_13967)"></path><path d="M649.907 426.678H677.739V391.121H649.907V426.678Z" fill="#0060A2"></path><path d="M673.908 426.678H677.739V391.121H673.908V426.678Z" fill="#A24C3B"></path><path d="M647.996 424.504H681.739V428.853H647.996V424.504Z" fill="#EEDDCF"></path><path d="M648.372 428.853H645.091V424.504H648.372V428.853Z" fill="#D3BEAE"></path><path d="M673.909 414.799L649.908 401.281V394.689H650.054L673.909 408.22V414.799Z" fill="url(#paint9_linear_240_13967)"></path><path d="M673.909 419.631L649.908 406.568V403.457L673.909 416.509V419.631Z" fill="url(#paint10_linear_240_13967)"></path><path d="M649.907 392.762V391.121H673.908L673.908 424.504H672.267V415.19H649.907V413.549H672.267V392.762H649.907Z" fill="white"></path><path d="M660.52 391.121H658.731V424.503H660.52V391.121Z" fill="white"></path><path d="M673.22 418.512H673.222C673.694 418.369 674.196 418.29 674.716 418.29C677.533 418.29 679.816 420.573 679.816 423.392C679.816 423.773 679.774 424.145 679.695 424.503H662.635C662.636 424.505 662.637 424.507 662.638 424.509H647.911C647.856 424.262 647.827 424.005 647.827 423.741C647.827 421.795 649.404 420.218 651.349 420.218C651.709 420.218 652.055 420.272 652.382 420.371C652.856 419.481 653.793 418.874 654.872 418.874C656.282 418.874 657.451 419.91 657.657 421.262C657.68 421.264 657.702 421.265 657.725 421.267C658.646 421.347 659.371 422.029 659.548 422.89C659.548 422.89 659.55 422.889 659.552 422.889C660.119 422.433 660.821 422.131 661.602 422.063C662.031 422.025 662.45 422.062 662.847 422.159C663.102 420.912 664.151 419.925 665.486 419.808C665.518 419.806 665.552 419.804 665.584 419.802C665.883 417.845 667.574 416.345 669.616 416.345C671.179 416.345 672.535 417.222 673.22 418.512Z" fill="url(#paint11_linear_240_13967)"></path><path d="M527.678 410.754L463.492 422.271L437.837 391.122L408.739 407.482L437.837 378.467L463.528 403.73H527.678L532.915 407.482L527.678 410.754Z" fill="white" fill-opacity="0.05"></path><path d="M527.675 410.755L463.489 422.272L437.834 391.123L408.736 407.483L437.834 378.469L463.525 403.732H527.675L532.911 407.483L527.675 410.755Z" fill="url(#paint12_linear_240_13967)" fill-opacity="0.05"></path><path d="M434.121 368.55L469.707 403.73H537.753L502.361 368.55H434.121Z" fill="#5F4D3F"></path><path d="M401.306 407.481L401.269 401.27L434.12 368.55L469.707 403.72H537.752L532.914 407.481H466.936L434.12 374.761L401.306 407.481Z" fill="#886D5B"></path><path d="M401.306 407.481L408.739 407.482L437.837 378.467L434.12 374.761L401.306 407.481Z" fill="#292019"></path><path d="M588.11 398.519H568.488V424.503H588.11V398.519Z" fill="white"></path><path d="M588.11 424.503L583.448 406.788L568.488 398.519V424.503H588.11Z" fill="white"></path><path d="M588.11 424.503L583.448 406.788L568.488 398.519V424.503H588.11Z" fill="url(#paint13_linear_240_13967)"></path><path d="M596.317 391.121H568.488V426.678H596.317V391.121Z" fill="white"></path><path d="M568.488 426.678H596.319V391.121H568.488V426.678Z" fill="#0060A2"></path><path d="M592.488 426.678H596.317L596.319 391.121H592.488V426.678Z" fill="#A24C3B"></path><path d="M566.577 424.504H600.32V428.853H566.577V424.504Z" fill="#EEDDCF"></path><path d="M566.953 428.853H563.672V424.504H566.953V428.853Z" fill="#D3BEAE"></path><path d="M592.488 414.798L568.488 401.28V394.687H568.634L592.488 408.219V414.798Z" fill="white"></path><path d="M592.488 414.799L568.488 401.281V394.689H568.634L592.488 408.22V414.799Z" fill="url(#paint14_linear_240_13967)"></path><path d="M592.488 419.628L568.488 406.565V403.455L592.488 416.506V419.628Z" fill="white"></path><path d="M592.488 419.629L568.488 406.566L568.488 403.455L592.488 416.507V419.629Z" fill="url(#paint15_linear_240_13967)"></path><path d="M568.488 392.762V391.121H592.489V424.504H590.848V415.19H568.488V413.549H590.848V392.762H568.488Z" fill="white"></path><path d="M579.101 391.121H577.312V424.503H579.101V391.121Z" fill="white"></path><path d="M601.194 452.751H679.813V458.308H601.194V452.751Z" fill="#EEDDCF"></path><path d="M601.194 452.751H586.645V458.308H601.194V452.751Z" fill="#D3BEAE"></path><path d="M604.467 447.59H670.757V452.75H604.467V447.59Z" fill="#EEDDCF"></path><path d="M604.467 447.59H593.919V452.75H604.467V447.59Z" fill="#D3BEAE"></path><path d="M572.503 442.06C572.503 442.06 572.503 442.058 572.51 442.058C573.791 441.669 575.151 441.457 576.562 441.457C584.202 441.457 590.395 447.649 590.395 455.292C590.395 456.327 590.281 457.336 590.065 458.306H532.232C533.596 454.721 536.913 452.045 540.992 451.689C542.157 451.585 543.292 451.685 544.371 451.949C545.063 448.567 547.908 445.891 551.528 445.575C551.615 445.566 551.707 445.562 551.793 445.557C552.605 440.247 557.192 436.178 562.729 436.178C566.967 436.178 570.646 438.562 572.506 442.06" fill="url(#paint16_linear_240_13967)"></path><path d="M455.518 436.641C455.665 436.649 455.819 436.656 455.966 436.67C462.119 437.207 466.953 441.755 468.131 447.503C469.964 447.054 471.892 446.885 473.871 447.062C480.804 447.664 486.441 452.212 488.759 458.306H390.479C390.111 456.658 389.918 454.943 389.918 453.184C389.918 440.195 400.443 429.672 413.424 429.672C415.823 429.672 418.134 430.033 420.311 430.695C420.311 430.695 420.318 430.696 420.318 430.698C423.477 424.752 429.73 420.703 436.931 420.703C446.343 420.703 454.138 427.616 455.518 436.641Z" fill="url(#paint17_linear_240_13967)"></path><path d="M502.361 368.55C502.361 368.55 503.795 393.191 471.207 403.73L537.752 403.72L502.361 368.55Z" fill="white" fill-opacity="0.05"></path><path d="M502.359 368.551C502.359 368.551 503.793 393.191 471.205 403.73L537.75 403.721L502.359 368.551Z" fill="url(#paint18_linear_240_13967)" fill-opacity="0.05"></path><path d="M670.757 450.171H604.47V452.751L670.757 452.75L670.757 450.171Z" fill="white"></path><path d="M670.757 450.171L604.467 451.954V452.75H670.757L670.757 450.171Z" fill="white"></path><path d="M670.757 450.171L604.467 451.956V452.753H670.757L670.757 450.171Z" fill="url(#paint19_linear_240_13967)"></path><path d="M564.189 219.554C564.189 230.881 578.494 255.737 584.697 255.737C590.899 255.737 605.204 230.881 605.204 219.554C605.204 208.229 596.022 199.048 584.697 199.048C573.37 199.048 564.189 208.229 564.189 219.554Z" fill="#D74E4E"></path><path d="M574.989 219.846C574.989 225.207 579.335 229.554 584.697 229.554C590.058 229.554 594.405 225.207 594.405 219.846C594.405 214.484 590.058 210.138 584.697 210.138C579.335 210.138 574.989 214.484 574.989 219.846Z" fill="#EEF6FB"></path><path d="M242.057 115.207H312.123V162.576H242.057V115.207Z" fill="#DC7455"></path><path d="M242.057 115.207H210.396V162.576H242.057V115.207Z" fill="#A24C3B"></path><path d="M312.121 125.743L242.055 132.172L210.395 144.747V123.45H312.121V125.743Z" fill="url(#paint20_linear_240_13967)" fill-opacity="0.05"></path><path d="M267.759 132.799H286.42V162.576H267.759V132.799Z" fill="#392D26"></path><path d="M284 133H268V163H284V133Z" fill="white" fill-opacity="0.03"></path><path d="M284.06 162.575L276.703 137.59L267.76 138.962V162.575H284.06Z" fill="white"></path><path d="M284.058 162.576L276.701 137.592L267.758 138.963V162.576H284.058Z" fill="url(#paint21_linear_240_13967)"></path><path d="M284.088 132.799H286.42V162.576H284.088V132.799Z" fill="#A24C3B"></path><path d="M299.017 162.575H420.655V458.874H299.017V162.575Z" fill="#DC7455"></path><path d="M299.017 162.575H157.645V458.874H299.017V162.575Z" fill="#A24C3B"></path><path d="M415.656 251.49H422.021V257.714H415.656V251.49Z" fill="#EEDDCF"></path><path d="M412.793 260.868H422.021V267.092H412.793V260.868Z" fill="#EEDDCF"></path><path d="M415.656 270.246H422.021V276.47H415.656V270.246Z" fill="#EEDDCF"></path><path d="M412.793 279.625H422.021V285.848H412.793V279.625Z" fill="#EEDDCF"></path><path d="M415.656 289.003H422.021V295.227H415.656V289.003Z" fill="#EEDDCF"></path><path d="M412.793 298.381H422.021V304.605H412.793V298.381Z" fill="#EEDDCF"></path><path d="M415.656 321.232H422.021V327.456H415.656V321.232Z" fill="#EEDDCF"></path><path d="M412.793 330.611H422.021V336.834H412.793V330.611Z" fill="#EEDDCF"></path><path d="M415.656 339.989H422.021V346.213H415.656V339.989Z" fill="#EEDDCF"></path><path d="M412.793 349.367H422.021V355.591H412.793V349.367Z" fill="#EEDDCF"></path><path d="M415.656 358.745H422.021V364.969H415.656V358.745Z" fill="#EEDDCF"></path><path d="M412.793 368.123H422.021V374.347H412.793V368.123Z" fill="#EEDDCF"></path><path d="M415.656 390.975H422.021V397.199H415.656V390.975Z" fill="#EEDDCF"></path><path d="M412.793 400.353H422.021V406.578H412.793V400.353Z" fill="#EEDDCF"></path><path d="M415.656 409.731H422.021V415.955H415.656V409.731Z" fill="#EEDDCF"></path><path d="M412.793 419.109H422.021V425.333H412.793V419.109Z" fill="#EEDDCF"></path><path d="M415.656 428.488H422.021V434.712H415.656V428.488Z" fill="#EEDDCF"></path><path d="M412.793 437.865H422.021V444.09H412.793V437.865Z" fill="#EEDDCF"></path><path d="M415.656 177.965H422.021V184.189H415.656V177.965Z" fill="#EEDDCF"></path><path d="M412.793 187.344H422.021V193.568H412.793V187.344Z" fill="#EEDDCF"></path><path d="M415.656 196.722H422.021V202.946H415.656V196.722Z" fill="#EEDDCF"></path><path d="M412.793 206.1H422.021V212.324H412.793V206.1Z" fill="#EEDDCF"></path><path d="M415.656 215.478H422.021V221.702H415.656V215.478Z" fill="#EEDDCF"></path><path d="M412.793 224.856H422.021V231.081H412.793V224.856Z" fill="#EEDDCF"></path><path d="M162.648 374.347H156.283V368.123H162.648V374.347Z" fill="#D3BEAE"></path><path d="M165.51 364.969H156.282V358.745H165.51V364.969Z" fill="#D3BEAE"></path><path d="M162.648 355.591H156.283V349.366H162.648V355.591Z" fill="#D3BEAE"></path><path d="M165.51 346.213H156.282V339.988H165.51V346.213Z" fill="#D3BEAE"></path><path d="M162.648 336.834H156.283V330.611H162.648V336.834Z" fill="#D3BEAE"></path><path d="M165.51 327.456H156.282V321.232H165.51V327.456Z" fill="#D3BEAE"></path><path d="M162.648 304.605H156.283V298.381H162.648V304.605Z" fill="#D3BEAE"></path><path d="M165.51 295.227H156.282V289.003H165.51V295.227Z" fill="#D3BEAE"></path><path d="M162.648 285.848H156.283V279.625H162.648V285.848Z" fill="#D3BEAE"></path><path d="M165.51 276.47H156.282V270.246H165.51V276.47Z" fill="#D3BEAE"></path><path d="M162.648 267.091H156.283V260.868H162.648V267.091Z" fill="#D3BEAE"></path><path d="M165.51 257.713H156.282V251.489H165.51V257.713Z" fill="#D3BEAE"></path><path d="M162.648 231.081H156.283V224.856H162.648V231.081Z" fill="#D3BEAE"></path><path d="M165.51 221.702H156.282V215.478H165.51V221.702Z" fill="#D3BEAE"></path><path d="M162.648 212.324H156.283V206.1H162.648V212.324Z" fill="#D3BEAE"></path><path d="M165.51 202.945H156.282V196.722H165.51V202.945Z" fill="#D3BEAE"></path><path d="M162.648 193.568H156.283V187.344H162.648V193.568Z" fill="#D3BEAE"></path><path d="M165.51 184.19H156.282V177.966H165.51V184.19Z" fill="#D3BEAE"></path><path d="M162.648 444.09H156.283V437.865H162.648V444.09Z" fill="#D3BEAE"></path><path d="M165.51 434.712H156.282V428.488H165.51V434.712Z" fill="#D3BEAE"></path><path d="M162.648 425.333H156.283V419.109H162.648V425.333Z" fill="#D3BEAE"></path><path d="M165.51 415.955H156.282V409.731H165.51V415.955Z" fill="#D3BEAE"></path><path d="M162.648 406.577H156.283V400.352H162.648V406.577Z" fill="#D3BEAE"></path><path d="M165.51 397.199H156.282V390.975H165.51V397.199Z" fill="#D3BEAE"></path><path d="M305.129 221.702H295.901V215.478H305.129V221.702Z" fill="#EEDDCF"></path><path d="M305.129 202.945H295.901V196.722H305.129V202.945Z" fill="#EEDDCF"></path><path d="M305.129 183.583H295.901V177.359H305.129V183.583Z" fill="#EEDDCF"></path><path d="M302.131 193.568H292.903V187.344H302.131V193.568Z" fill="#EEDDCF"></path><path d="M302.131 212.324H292.903V206.1H302.131V212.324Z" fill="#EEDDCF"></path><path d="M302.131 231.081H292.903V224.856H302.131V231.081Z" fill="#EEDDCF"></path><path d="M305.129 295.833H295.901V289.609H305.129V295.833Z" fill="#EEDDCF"></path><path d="M305.129 277.076H295.901V270.852H305.129V277.076Z" fill="#EEDDCF"></path><path d="M305.129 257.713H295.901V251.49H305.129V257.713Z" fill="#EEDDCF"></path><path d="M302.131 267.698H292.903V261.474H302.131V267.698Z" fill="#EEDDCF"></path><path d="M302.131 286.454H292.903V280.231H302.131V286.454Z" fill="#EEDDCF"></path><path d="M302.131 305.211H292.903V298.986H302.131V305.211Z" fill="#EEDDCF"></path><path d="M305.129 365.639H295.901V359.415H305.129V365.639Z" fill="#EEDDCF"></path><path d="M305.129 346.883H295.901V340.659H305.129V346.883Z" fill="#EEDDCF"></path><path d="M305.129 327.521H295.901V321.297H305.129V327.521Z" fill="#EEDDCF"></path><path d="M302.131 337.505H292.903V331.281H302.131V337.505Z" fill="#EEDDCF"></path><path d="M302.131 356.261H292.903V350.037H302.131V356.261Z" fill="#EEDDCF"></path><path d="M302.131 375.017H292.903V368.793H302.131V375.017Z" fill="#EEDDCF"></path><path d="M305.129 435.318H295.901V429.093H305.129V435.318Z" fill="#EEDDCF"></path><path d="M305.129 416.561H295.901V410.337H305.129V416.561Z" fill="#EEDDCF"></path><path d="M305.129 397.199H295.901V390.975H305.129V397.199Z" fill="#EEDDCF"></path><path d="M302.131 407.183H292.903V400.959H302.131V407.183Z" fill="#EEDDCF"></path><path d="M302.131 425.94H292.903V419.716H302.131V425.94Z" fill="#EEDDCF"></path><path d="M302.131 444.696H292.903V438.471H302.131V444.696Z" fill="#EEDDCF"></path><path d="M295.901 215.478H299.017V221.702H295.901V215.478Z" fill="#D3BEAE"></path><path d="M295.901 196.722H299.017V202.946L295.901 202.945V196.722Z" fill="#D3BEAE"></path><path d="M295.901 177.359H299.017V183.583H295.901V177.359Z" fill="#D3BEAE"></path><path d="M292.903 187.344H299.017V193.568H292.903V187.344Z" fill="#D3BEAE"></path><path d="M292.903 206.1H299.017V212.324H292.903V206.1Z" fill="#D3BEAE"></path><path d="M292.903 224.856H299.017V231.081H292.903V224.856Z" fill="#D3BEAE"></path><path d="M295.901 289.609H299.017V295.833H295.901V289.609Z" fill="#D3BEAE"></path><path d="M295.901 270.852H299.017V277.076H295.901V270.852Z" fill="#D3BEAE"></path><path d="M295.901 251.49H299.017V257.714L295.901 257.713V251.49Z" fill="#D3BEAE"></path><path d="M292.903 261.474H299.017V267.698H292.903V261.474Z" fill="#D3BEAE"></path><path d="M292.903 280.231H299.017V286.454H292.903V280.231Z" fill="#D3BEAE"></path><path d="M292.904 298.987H299.017V305.21H292.904V298.987Z" fill="#D3BEAE"></path><path d="M295.901 359.415H299.017V365.639H295.901V359.415Z" fill="#D3BEAE"></path><path d="M295.901 340.659H299.017V346.883H295.901V340.659Z" fill="#D3BEAE"></path><path d="M295.901 321.297H299.017V327.521H295.901V321.297Z" fill="#D3BEAE"></path><path d="M292.903 331.281H299.017V337.505H292.903V331.281Z" fill="#D3BEAE"></path><path d="M292.903 350.037H299.017V356.261H292.903V350.037Z" fill="#D3BEAE"></path><path d="M292.903 368.793H299.017V375.017H292.903V368.793Z" fill="#D3BEAE"></path><path d="M295.901 429.093H299.017V435.318H295.901V429.093Z" fill="#D3BEAE"></path><path d="M295.901 410.337H299.017V416.561H295.901V410.337Z" fill="#D3BEAE"></path><path d="M295.901 390.975L299.017 390.974V397.199L295.901 397.199V390.975Z" fill="#D3BEAE"></path><path d="M292.903 400.959H299.017V407.183H292.903V400.959Z" fill="#D3BEAE"></path><path d="M292.903 419.716H299.017V425.94H292.903V419.716Z" fill="#D3BEAE"></path><path d="M292.904 438.472H299.017V444.696H292.903L292.904 438.472Z" fill="#D3BEAE"></path><path d="M201.873 115.207H319.148V123.45H201.873V115.207Z" fill="#EEDDCF"></path><path d="M201.873 115.207H235.876V123.45H201.873V115.207Z" fill="#C88F84"></path><path d="M147.864 162.575H430.435L427.437 170.819H150.861L147.864 162.575Z" fill="#EEDDCF"></path><path d="M147.864 162.575H299.017L299.017 170.818H150.862L147.864 162.575Z" fill="#C88F84"></path><path d="M150.861 239.054H427.437V247.298H150.861V239.054Z" fill="#F3AE9E"></path><path d="M150.861 239.054H299.017V247.298H150.861V239.054Z" fill="#C88F84"></path><path d="M150.861 308.797H427.437V317.04H150.861V308.797Z" fill="#F3AE9E"></path><path d="M150.861 308.797H299.017V317.04H150.861V308.797Z" fill="#C88F84"></path><path d="M150.861 378.539H427.437V386.783H150.861V378.539Z" fill="#F3AE9E"></path><path d="M150.861 378.539H299.017V386.783H150.861V378.539Z" fill="#C88F84"></path><path d="M380.624 152.072H410.278V162.576H380.624V152.072Z" fill="#392D26"></path><path d="M380.624 152.072H392.04V162.576H380.624V152.072Z" fill="#231B16"></path><path d="M351.752 404.846H403.975V452.206H351.752V404.846Z" fill="#0060A2"></path><path d="M398.663 452.206H403.977V404.846H398.663V452.206Z" fill="#A24C3B"></path><path d="M351.753 406.841V404.837H398.661V452.206H396.657V436.716H351.753V434.712H396.657V406.841H351.753Z" fill="white"></path><path d="M403.973 424.274L398.659 430.597L351.75 444.692V404.834H403.973V424.274Z" fill="url(#paint22_linear_240_13967)" fill-opacity="0.1"></path><path d="M315.695 404.837H333.849V458.875H315.695V404.837Z" fill="#392D26"></path><path d="M328.535 458.875H333.849V404.837H328.535V458.875Z" fill="#A24C3B"></path><path d="M382.949 228.424H404.206V184.978H382.949V228.424Z" fill="#0060A2"></path><path d="M396.887 225.761H382.948V219.349L394.302 216.982L396.887 225.761Z" fill="url(#paint23_linear_240_13967)"></path><path d="M398.892 228.423L404.206 228.424V184.978L398.892 184.977V228.423Z" fill="#A24C3B"></path><path d="M380.614 225.766H406.541V231.08H380.614V225.766Z" fill="#EEDDCF"></path><path d="M377.244 231.081L380.614 231.08V225.766L377.244 225.767V231.081Z" fill="#D3BEAE"></path><path d="M398.891 213.908L382.948 197.391V189.335H383.126L398.891 205.869V213.908Z" fill="#0060A2"></path><path d="M398.891 219.81L382.948 203.848V200.047L398.891 215.995V219.81Z" fill="#0060A2"></path><path d="M382.95 186.982L382.949 184.978H398.893V225.766H396.889V214.386H382.95V212.381H396.889V186.982H382.95Z" fill="white"></path><path d="M349.321 228.423H370.578V184.977H349.321V228.423Z" fill="#0060A2"></path><path d="M363.261 225.764H349.323V219.352L360.676 216.985L363.261 225.764Z" fill="url(#paint24_linear_240_13967)"></path><path d="M365.264 228.423H370.578V184.977H365.264V228.423Z" fill="#A24C3B"></path><path d="M346.987 225.766H372.914V231.08H346.987V225.766Z" fill="#EEDDCF"></path><path d="M343.617 231.081H346.987V225.767H343.617V231.081Z" fill="#D3BEAE"></path><path d="M365.264 213.908L349.321 197.391V189.335H349.499L365.264 205.869V213.908Z" fill="#0060A2"></path><path d="M365.264 219.81L349.321 203.848V200.048L365.264 215.996V219.81Z" fill="#0060A2"></path><path d="M349.321 186.982L349.321 184.977H365.264L365.264 225.766H363.26V214.386H349.321V212.381H363.26V186.982H349.321Z" fill="white"></path><path d="M315.692 228.424H336.948V184.978H315.692V228.424Z" fill="#0060A2"></path><path d="M329.63 225.764H315.692V219.352L327.045 216.985L329.63 225.764Z" fill="url(#paint25_linear_240_13967)"></path><path d="M331.637 228.423H336.95V184.977H331.637V228.423Z" fill="#A24C3B"></path><path d="M313.359 225.766H339.286V231.08H313.359V225.766Z" fill="#EEDDCF"></path><path d="M309.989 231.081L313.359 231.08V225.766L309.989 225.767V231.081Z" fill="#D3BEAE"></path><path d="M331.64 213.908L315.697 197.391V189.335H315.875L331.64 205.869V213.908Z" fill="#0060A2"></path><path d="M315.695 186.982V184.977H331.637L331.638 225.766H329.634V214.386H315.695V212.381H329.634V186.982H315.695Z" fill="white"></path><path d="M404.2 187.493L398.885 193.844L382.943 196.827V184.976H404.2V187.493Z" fill="url(#paint26_linear_240_13967)" fill-opacity="0.05"></path><path d="M370.578 187.493L365.263 193.844L349.321 196.827V184.977H370.578V187.493Z" fill="url(#paint27_linear_240_13967)" fill-opacity="0.05"></path><path d="M336.947 187.493L331.634 193.844L315.691 196.827V184.976H336.947V187.493Z" fill="url(#paint28_linear_240_13967)" fill-opacity="0.05"></path><path d="M404.21 258.501H382.953V301.947H404.21V258.501Z" fill="white"></path><path d="M382.949 301.947H404.206V258.501H382.949V301.947Z" fill="#0060A2"></path><path d="M398.892 301.947H404.206V258.501H398.892V301.947Z" fill="#A24C3B"></path><path d="M380.614 299.29H406.541V304.604H380.614V299.29Z" fill="#EEDDCF"></path><path d="M377.244 304.605H380.614L380.614 299.29L377.244 299.291V304.605Z" fill="#D3BEAE"></path><path d="M398.891 287.432L382.948 270.915V262.859H383.126L398.891 279.393V287.432Z" fill="#0060A2"></path><path d="M398.891 293.334L382.948 277.373V273.571L398.891 289.52V293.334Z" fill="#0060A2"></path><path d="M382.95 260.507V258.502H398.893V299.29H396.889V287.91H382.95V285.906H396.889V260.507H382.95Z" fill="white"></path><path d="M370.58 258.502H349.323V301.947H370.58V258.502Z" fill="white"></path><path d="M349.321 301.947H370.578V258.501H349.321V301.947Z" fill="#0060A2"></path><path d="M365.264 301.947H370.578V258.501H365.264V301.947Z" fill="#A24C3B"></path><path d="M346.987 299.29H372.914V304.604H346.987V299.29Z" fill="#EEDDCF"></path><path d="M343.617 304.605H346.987V299.291H343.617V304.605Z" fill="#D3BEAE"></path><path d="M365.264 287.433L349.321 270.915V262.86H349.499L365.264 279.394V287.433Z" fill="#0060A2"></path><path d="M365.264 293.335L349.321 277.374V273.572L365.264 289.521V293.335Z" fill="#0060A2"></path><path d="M349.321 260.506V258.502H365.264V299.29H363.26V287.91H349.321V285.905H363.26V260.506H349.321Z" fill="white"></path><path d="M336.949 258.502H315.692V301.947H336.949V258.502Z" fill="white"></path><path d="M315.692 301.947L336.947 301.947V258.501H315.691L315.692 301.947Z" fill="#0060A2"></path><path d="M331.637 301.947H336.95V258.501H331.637V301.947Z" fill="#A24C3B"></path><path d="M313.359 299.29H339.286V304.604H313.359V299.29Z" fill="#EEDDCF"></path><path d="M309.989 304.605H313.359L313.359 299.29L309.989 299.291V304.605Z" fill="#D3BEAE"></path><path d="M331.639 287.432L315.696 270.915V262.859H315.874L331.639 279.393V287.432Z" fill="#0060A2"></path><path d="M331.639 293.334L315.696 277.373V273.572L331.639 289.52V293.334Z" fill="#0060A2"></path><path d="M315.695 260.506V258.502H331.638V299.29H329.634V287.91H315.695V285.905H329.634V260.506H315.695Z" fill="white"></path><path d="M404.21 328.244H382.953V371.69H404.21V328.244Z" fill="white"></path><path d="M382.949 371.689H404.206V328.244H382.949V371.689Z" fill="#0060A2"></path><path d="M398.892 371.689H404.206V328.244H398.892V371.689Z" fill="#A24C3B"></path><path d="M380.614 369.033H406.541V374.347H380.614V369.033Z" fill="#EEDDCF"></path><path d="M377.244 374.347H380.614V369.033H377.244V374.347Z" fill="#D3BEAE"></path><path d="M382.95 330.249V328.245H398.893V369.033H396.889V357.652H382.95V355.648H396.889V330.249H382.95Z" fill="white"></path><path d="M370.58 328.244H349.323V371.69H370.58V328.244Z" fill="white"></path><path d="M349.321 371.689H370.578V328.244H349.321V371.689Z" fill="#0060A2"></path><path d="M365.264 371.689H370.578V328.244H365.264V371.689Z" fill="#A24C3B"></path><path d="M346.987 369.033H372.914V374.347H346.987V369.033Z" fill="#EEDDCF"></path><path d="M343.617 374.347H346.987V369.033H343.617V374.347Z" fill="#D3BEAE"></path><path d="M349.321 330.248V328.245H365.264V369.033H363.26V357.652H349.321V355.648H363.26V330.248H349.321Z" fill="white"></path><path d="M336.949 328.244H315.692V371.69H336.949V328.244Z" fill="white"></path><path d="M315.692 371.69H336.947V328.244H315.692V371.69Z" fill="#0060A2"></path><path d="M331.637 371.689H336.95V328.244H331.637V371.689Z" fill="#A24C3B"></path><path d="M313.359 369.033H339.286V374.347H313.359V369.033Z" fill="#EEDDCF"></path><path d="M309.989 374.347H313.359V369.033H309.989V374.347Z" fill="#D3BEAE"></path><path d="M315.695 330.248V328.245H331.638V369.033H329.634V357.652H315.695V355.648H329.634V330.248H315.695Z" fill="white"></path><path d="M299.016 452.252H425.938L427.437 458.875H299.016V452.252Z" fill="#5F4D3F"></path><path d="M152.36 452.252H299.016V458.875H150.861L152.36 452.252Z" fill="#392D26"></path><path d="M420.653 172.828L299.015 181.646L157.642 186.181V170.818H420.653V172.828Z" fill="white" fill-opacity="0.05"></path><path d="M420.653 249.308L299.015 257.117L157.642 262.66V247.298H420.653V249.308Z" fill="white" fill-opacity="0.05"></path><path d="M420.653 319.05L299.015 327.868L157.642 332.403V317.04H420.653V319.05Z" fill="white" fill-opacity="0.05"></path><path d="M399.745 398.026C406.888 398.026 412.68 403.816 412.68 410.96V415.329C412.68 417.912 410.586 420.005 408.002 420.005C405.42 420.005 403.325 417.912 403.325 415.329C403.325 417.912 401.232 420.005 398.649 420.005C396.065 420.005 393.971 417.912 393.971 415.329C393.971 417.912 391.877 420.005 389.294 420.005C386.711 420.005 384.618 417.912 384.618 415.329C384.618 417.912 382.523 420.005 379.94 420.005C377.357 420.005 375.262 417.912 375.262 415.329C375.262 417.912 373.169 420.005 370.586 420.005C368.003 420.005 365.909 417.912 365.909 415.329V411.302H345.992V398.026H399.745Z" fill="#FFFAF5"></path><path d="M352.975 398.026C360.118 398.026 365.909 403.816 365.909 410.96V411.302V416.686C365.909 418.519 364.423 420.005 362.589 420.005C360.756 420.005 359.27 418.519 359.27 416.686C359.27 418.519 357.784 420.005 355.951 420.005C354.117 420.005 352.631 418.519 352.631 416.686C352.631 418.519 351.145 420.005 349.312 420.005C347.478 420.005 345.992 418.519 345.992 416.686V411.302V398.026H352.975Z" fill="#EEDDCF"></path><path d="M346 398H316V452H346V398Z" fill="white" fill-opacity="0.1"></path><path d="M345.989 417.946L333.846 420.14L315.692 440.967V400.222L345.989 398.026V417.946Z" fill="white"></path><path d="M345.984 417.943L333.84 420.137L315.688 440.964V400.219L345.984 398.023V417.943Z" fill="url(#paint29_linear_240_13967)" fill-opacity="0.1"></path><path d="M187.971 425.523C187.971 425.521 187.977 425.521 187.978 425.519C190.61 424.72 193.401 424.284 196.298 424.284C211.978 424.284 224.69 436.996 224.69 452.684C224.69 454.809 224.459 456.88 224.015 458.872H105.301C108.101 451.511 114.91 446.017 123.284 445.289C125.674 445.075 128.005 445.279 130.217 445.823C131.639 438.88 137.48 433.387 144.911 432.737C145.088 432.72 145.275 432.71 145.453 432.702C147.119 421.8 156.536 413.45 167.903 413.45C176.601 413.45 184.155 418.342 187.971 425.523Z" fill="url(#paint30_linear_240_13967)"></path><path d="M125.743 458.875H128.967V353.88H125.743V458.875Z" fill="#5F4D3F"></path><path d="M124.699 458.875H130.013V411.46H124.699V458.875Z" fill="#392D26"></path><path d="M121.664 340.94H133.047C133.035 345.907 132.371 350.612 130.773 354.943H123.937C122.397 350.581 121.731 345.878 121.664 340.94Z" fill="#C1E6FB"></path><path d="M124.665 358.397C126.576 358.666 128.368 358.652 130.063 358.402C130.475 358.341 130.775 357.975 130.775 357.56V354.943L123.937 354.943L123.938 357.551C123.938 357.971 124.249 358.339 124.665 358.397Z" fill="#392D26"></path><path d="M125.722 335.707H128.988C131.878 335.707 134.221 338.05 134.221 340.939H120.49C120.49 338.05 122.833 335.707 125.722 335.707Z" fill="#392D26"></path><path d="M251.96 458.876C252.718 458.546 253.067 457.663 252.737 456.903L247.643 445.181L252.344 417.686C252.483 416.87 251.935 416.095 251.119 415.955C250.303 415.815 249.529 416.364 249.389 417.181L244.537 445.555L249.988 458.099C250.318 458.858 251.201 459.205 251.96 458.876Z" fill="#392D26"></path><path d="M196.545 458.876C197.304 458.546 197.652 457.663 197.321 456.903L192.228 445.181L196.929 417.686C197.068 416.87 196.52 416.095 195.704 415.955C194.888 415.815 194.113 416.364 193.974 417.181L189.122 445.555L194.573 458.099C194.903 458.858 195.786 459.205 196.545 458.876Z" fill="#392D26"></path><path d="M236.383 457.855L240.062 445.205L237.183 444.368L233.505 457.018C233.273 457.813 233.73 458.645 234.525 458.876C235.32 459.107 236.151 458.65 236.383 457.855Z" fill="#392D26"></path><path d="M180.044 457.855L183.724 445.205L180.844 444.368L177.166 457.018C176.935 457.813 177.392 458.645 178.186 458.876C178.981 459.107 179.813 458.65 180.044 457.855Z" fill="#392D26"></path><path d="M259.73 418.684L258.89 417.954L256.919 430.6L257.76 431.33L259.73 418.684Z" fill="#E48F77"></path><path d="M257.466 433.227L256.625 432.497L255.615 438.978L256.456 439.708L257.466 433.227Z" fill="#E48F77"></path><path d="M185.788 430.6H256.921L258.892 417.954H187.759L185.788 430.6Z" fill="#DC7455"></path><path d="M184.483 438.978H255.615L256.625 432.497H185.492L184.483 438.978Z" fill="#DC7455"></path><path d="M239.562 443.166L238.564 446.406H167.43L168.429 443.166H239.562Z" fill="#DC7455"></path><path d="M256.456 446.407H238.563L239.563 443.167H256.456V446.407Z" fill="#E48F77"></path><path d="M257.762 431.33L256.921 430.6H185.788L186.629 431.331L257.762 431.33Z" fill="#A24C3B"></path><path d="M256.456 439.708L185.323 439.708L184.483 438.978H255.615L256.456 439.708Z" fill="#A24C3B"></path><path d="M258.223 422.222L190.243 438.978H184.48L187.756 417.955H258.889L258.223 422.222Z" fill="white" fill-opacity="0.1"></path><path d="M258.214 422.217L190.234 438.974H184.471L187.746 417.951H258.879L258.214 422.217Z" fill="url(#paint31_linear_240_13967)" fill-opacity="0.1"></path><path fill-rule="evenodd" clip-rule="evenodd" d="M83.5386 458.407C83.5386 456.031 85.4649 454.104 87.8412 454.104H766.167C768.543 454.104 770.469 456.031 770.469 458.407C770.469 460.783 768.543 462.71 766.167 462.71H87.8412C85.4649 462.71 83.5386 460.783 83.5386 458.407Z" fill="#5F4D3F"></path><defs><linearGradient id="paint0_linear_240_13967" x1="385.237" y1="-50.2246" x2="385.237" y2="807.263" gradientUnits="userSpaceOnUse"><stop stop-color="#D8E8EE"></stop><stop offset="0.93711" stop-color="#4ECEF7"></stop><stop offset="1" stop-color="#4ECEF7"></stop></linearGradient><linearGradient id="paint1_linear_240_13967" x1="385.237" y1="-50.2246" x2="385.237" y2="807.263" gradientUnits="userSpaceOnUse"><stop stop-color="#D8E8EE"></stop><stop offset="0.93711" stop-color="#4ECEF7"></stop><stop offset="1" stop-color="#4ECEF7"></stop></linearGradient><linearGradient id="paint2_linear_240_13967" x1="385.235" y1="76.6976" x2="385.235" y2="687.235" gradientUnits="userSpaceOnUse"><stop stop-color="#D8E8EE"></stop><stop offset="0.93711" stop-color="#4ECEF7"></stop><stop offset="1" stop-color="#4ECEF7"></stop></linearGradient><linearGradient id="paint3_linear_240_13967" x1="770.461" y1="231.355" x2="0.00835791" y2="231.355" gradientUnits="userSpaceOnUse"><stop stop-color="#3AAF56"></stop><stop offset="1" stop-color="#41C15E"></stop></linearGradient><linearGradient id="paint4_linear_240_13967" x1="403.353" y1="48.7719" x2="-90.7964" y2="173.383" gradientUnits="userSpaceOnUse"><stop stop-color="#C5C5C5"></stop><stop offset="1" stop-color="white"></stop></linearGradient><linearGradient id="paint5_linear_240_13967" x1="175.599" y1="875.781" x2="886.776" y2="622.605" gradientUnits="userSpaceOnUse"><stop stop-color="white"></stop><stop offset="1" stop-color="#C5C5C5"></stop></linearGradient><linearGradient id="paint6_linear_240_13967" x1="36.1552" y1="509.276" x2="828.449" y2="71.6967" gradientUnits="userSpaceOnUse"><stop stop-color="white"></stop><stop offset="1" stop-color="#C5C5C5"></stop></linearGradient><linearGradient id="paint7_linear_240_13967" x1="36.1777" y1="509.276" x2="828.459" y2="71.7172" gradientUnits="userSpaceOnUse"><stop stop-color="white"></stop><stop offset="1" stop-color="#C5C5C5"></stop></linearGradient><linearGradient id="paint8_linear_240_13967" x1="557.65" y1="133.164" x2="473.123" y2="367.199" gradientUnits="userSpaceOnUse"><stop stop-color="white"></stop><stop offset="1" stop-color="white"></stop></linearGradient><linearGradient id="paint9_linear_240_13967" x1="-12.1023" y1="34.7895" x2="671.933" y2="693.982" gradientUnits="userSpaceOnUse"><stop stop-color="#0060A2"></stop><stop offset="1" stop-color="#4ECEF7"></stop></linearGradient><linearGradient id="paint10_linear_240_13967" x1="-113.961" y1="-76.0979" x2="710.219" y2="562.697" gradientUnits="userSpaceOnUse"><stop stop-color="#0060A2"></stop><stop offset="1" stop-color="#4ECEF7"></stop></linearGradient><linearGradient id="paint11_linear_240_13967" x1="385.247" y1="22.5574" x2="385.247" y2="457.155" gradientUnits="userSpaceOnUse"><stop stop-color="#41C15E"></stop><stop offset="1" stop-color="#3AAF56"></stop></linearGradient><linearGradient id="paint12_linear_240_13967" x1="167.434" y1="624.045" x2="770.306" y2="306.18" gradientUnits="userSpaceOnUse"><stop stop-color="white"></stop><stop offset="1" stop-color="#C5C5C5"></stop></linearGradient><linearGradient id="paint13_linear_240_13967" x1="557.65" y1="133.164" x2="473.123" y2="367.199" gradientUnits="userSpaceOnUse"><stop stop-color="white"></stop><stop offset="1" stop-color="white"></stop></linearGradient><linearGradient id="paint14_linear_240_13967" x1="-104.752" y1="45.8338" x2="636.486" y2="589.567" gradientUnits="userSpaceOnUse"><stop stop-color="#0060A2"></stop><stop offset="1" stop-color="#4ECEF7"></stop></linearGradient><linearGradient id="paint15_linear_240_13967" x1="-195.153" y1="-40.5951" x2="650.563" y2="458.391" gradientUnits="userSpaceOnUse"><stop stop-color="#0060A2"></stop><stop offset="1" stop-color="#4ECEF7"></stop></linearGradient><linearGradient id="paint16_linear_240_13967" x1="385.188" y1="-113.147" x2="385.188" y2="660.963" gradientUnits="userSpaceOnUse"><stop stop-color="#41C15E"></stop><stop offset="1" stop-color="#3AAF56"></stop></linearGradient><linearGradient id="paint17_linear_240_13967" x1="385.239" y1="-2.53486" x2="385.239" y2="508.288" gradientUnits="userSpaceOnUse"><stop stop-color="#3AAF56"></stop><stop offset="1" stop-color="#2F9549"></stop></linearGradient><linearGradient id="paint18_linear_240_13967" x1="155.46" y1="649.509" x2="633.492" y2="271.8" gradientUnits="userSpaceOnUse"><stop stop-color="white"></stop><stop offset="1" stop-color="#C5C5C5"></stop></linearGradient><linearGradient id="paint19_linear_240_13967" x1="211.975" y1="231.444" x2="892.752" y2="231.444" gradientUnits="userSpaceOnUse"><stop stop-color="white"></stop><stop offset="1" stop-color="#C5C5C5"></stop></linearGradient><linearGradient id="paint20_linear_240_13967" x1="101.196" y1="756.278" x2="941.236" y2="493.415" gradientUnits="userSpaceOnUse"><stop stop-color="white"></stop><stop offset="1" stop-color="#C5C5C5"></stop></linearGradient><linearGradient id="paint21_linear_240_13967" x1="385.235" y1="-83.0633" x2="385.235" y2="461.154" gradientUnits="userSpaceOnUse"><stop stop-color="#392D26"></stop><stop offset="1" stop-color="#392D26"></stop></linearGradient><linearGradient id="paint22_linear_240_13967" x1="770.469" y1="231.355" x2="0" y2="231.355" gradientUnits="userSpaceOnUse"><stop stop-color="#C5C5C5"></stop><stop offset="1" stop-color="white"></stop></linearGradient><linearGradient id="paint23_linear_240_13967" x1="385.262" y1="-849.838" x2="385.262" y2="469.614" gradientUnits="userSpaceOnUse"><stop stop-color="#005088"></stop><stop offset="1" stop-color="#0060A2"></stop></linearGradient><linearGradient id="paint24_linear_240_13967" x1="385.179" y1="-849.838" x2="385.179" y2="469.614" gradientUnits="userSpaceOnUse"><stop stop-color="#005088"></stop><stop offset="1" stop-color="#0060A2"></stop></linearGradient><linearGradient id="paint25_linear_240_13967" x1="385.235" y1="-849.838" x2="385.235" y2="469.614" gradientUnits="userSpaceOnUse"><stop stop-color="#005088"></stop><stop offset="1" stop-color="#0060A2"></stop></linearGradient><linearGradient id="paint26_linear_240_13967" x1="865.976" y1="-26.0423" x2="110.47" y2="198.653" gradientUnits="userSpaceOnUse"><stop stop-color="#C5C5C5"></stop><stop offset="1" stop-color="white"></stop></linearGradient><linearGradient id="paint27_linear_240_13967" x1="865.976" y1="-26.0423" x2="110.47" y2="198.653" gradientUnits="userSpaceOnUse"><stop stop-color="#C5C5C5"></stop><stop offset="1" stop-color="white"></stop></linearGradient><linearGradient id="paint28_linear_240_13967" x1="866.017" y1="-26.0423" x2="110.481" y2="198.673" gradientUnits="userSpaceOnUse"><stop stop-color="#C5C5C5"></stop><stop offset="1" stop-color="white"></stop></linearGradient><linearGradient id="paint29_linear_240_13967" x1="770.469" y1="231.349" x2="-0.0254425" y2="231.349" gradientUnits="userSpaceOnUse"><stop stop-color="#C5C5C5"></stop><stop offset="1" stop-color="white"></stop></linearGradient><linearGradient id="paint30_linear_240_13967" x1="385.235" y1="-83.7873" x2="385.235" y2="502.591" gradientUnits="userSpaceOnUse"><stop stop-color="#3AAF56"></stop><stop offset="1" stop-color="#41C15E"></stop></linearGradient><linearGradient id="paint31_linear_240_13967" x1="770.469" y1="231.344" x2="-0.0103329" y2="231.344" gradientUnits="userSpaceOnUse"><stop stop-color="#C5C5C5"></stop><stop offset="1" stop-color="white"></stop></linearGradient></defs></svg>